<?xml version="1.0" encoding="utf-8"?>
<!-- Generator: Adobe Illustrator 22.0.1, SVG Export Plug-In . SVG Version: 6.00 Build 0)  -->
<svg version="1.1" id="레이어_1" xmlns="http://www.w3.org/2000/svg" xmlns:xlink="http://www.w3.org/1999/xlink" x="0px"
	 y="0px" viewBox="0 0 479 667.2" enable-background="new 0 0 479 667.2" xml:space="preserve">
<g>
	<g>
		<path fill="#444545" d="M364.7,643.4c-13.8,0-27.5-1.8-40.9-5.5c-19.5-5.3-37.5-14.2-53.5-26.4c-14.5-11-26.8-24.4-36.6-39.8
			c-1.4-2.2-4.1-6.7-4.1-6.7l17.8-10.2c0,0,2.5,4.2,3.8,6.3c18.1,28,45.5,48.1,77.9,56.9c33.9,9.2,69.3,5.1,100.1-11.7
			c0.8-0.4,2.4-1.3,2.4-1.3l10.2,17.8c0,0-3,1.7-4.5,2.5c-17,9-35.1,14.7-54.1,17C377.1,643,370.9,643.4,364.7,643.4z"/>
	</g>
	<path fill="#444545" d="M426.5,23.8v83.3H285.7V23.8H31.9v20.5h233.3v62.8H158.8c-17.1,0-33.7,3.4-49.4,10
		c-15.1,6.4-28.7,15.5-40.3,27.2c-11.7,11.7-20.8,25.2-27.2,40.3c-6.6,15.7-10,32.3-10,49.4c0,17.1,3.4,33.7,10,49.4
		c6.4,15.1,15.5,28.7,27.2,40.3c11.7,11.7,25.2,20.8,40.3,27.2c15.7,6.6,32.3,10,49.4,10c17.1,0,33.7-3.4,49.4-10
		c15.1-6.4,28.7-15.5,40.3-27.2c11.7-11.7,20.8-25.2,27.2-40.3c6.6-15.7,10-32.3,10-49.4V127.6h140.8v295.9
		c0,40.4-32.9,73.2-73.2,73.2c-29,0-54.1-16.9-66-41.5c-3-6.2-5.1-12.9-6.3-19.9c-0.6-3.9-1-11.9-1-11.9h-19.9c0,0-0.2,4.6,0.7,10.7
		c1.2,8.2,3.2,19.2,6,25.8c4.7,11.2,11.5,21.2,20.1,29.8c8.6,8.6,18.6,15.4,29.8,20.1c11.6,4.9,23.8,7.4,36.5,7.4
		c12.7,0,24.9-2.5,36.5-7.4c11.2-4.7,21.2-11.5,29.8-20.1c8.6-8.6,15.4-18.6,20.1-29.8c4.9-11.5,7.3-23.7,7.4-36.3V23.8H426.5z
		 M265.2,234c0,58.7-47.7,106.4-106.4,106.4S52.5,292.6,52.5,234c0-58.7,47.7-106.4,106.4-106.4h106.4V234z"/>
	<g>
		<path fill="#444545" d="M158.8,183.5c-25,0-45.4,20.3-45.4,45.4s20.3,45.4,45.4,45.4c25,0,45.4-20.3,45.4-45.4
			S183.9,183.5,158.8,183.5z M146.3,231c-8,0-14.6-6.5-14.6-14.6s6.5-14.6,14.6-14.6c8,0,14.6,6.5,14.6,14.6S154.3,231,146.3,231z"
			/>
	</g>
</g>
</svg>
