<?xml version="1.0" encoding="utf-8"?>
<!-- Generator: Adobe Illustrator 22.0.1, SVG Export Plug-In . SVG Version: 6.00 Build 0)  -->
<svg version="1.1" id="레이어_1" xmlns="http://www.w3.org/2000/svg" xmlns:xlink="http://www.w3.org/1999/xlink" x="0px"
	 y="0px" viewBox="0 0 2737.9 3936.9" enable-background="new 0 0 2737.9 3936.9" xml:space="preserve">
<g>
	<g>
		<path fill="#FFFFFF" d="M2064.7,3689.3c-76.5,0-152.6-10.2-227.3-30.6c-108.2-29.5-208.1-78.8-296.9-146.5
			c-80.5-61.4-148.7-135.5-203.3-220.9c-7.8-12.2-22.5-37.3-22.5-37.3l99-56.6c0,0,13.9,23.6,21.3,35
			c100.3,155.6,252.5,267.2,432.5,316.3c188.4,51.3,385.2,28.2,556.1-65.1c4.4-2.4,13.2-7.4,13.2-7.4l56.6,99
			c0,0-16.5,9.3-24.9,13.7c-94.2,49.9-195.3,81.6-300.8,94.2C2133.3,3687.3,2098.9,3689.3,2064.7,3689.3z"/>
	</g>
	<path fill="#FFFFFF" d="M2407.9,247.6v462.6h-782V247.6H216v114h1295.9v348.6H920.9c-95.1,0-187.5,18.6-274.4,55.4
		c-83.9,35.5-159.3,86.3-224.1,151.1s-115.5,140.1-151.1,224.1c-36.8,86.9-55.4,179.3-55.4,274.4c0,95.1,18.6,187.5,55.4,274.4
		c35.5,84,86.3,159.3,151.1,224.1c64.7,64.7,140.1,115.5,224.1,151c86.9,36.8,179.3,55.4,274.4,55.4c95.1,0,187.5-18.6,274.4-55.4
		c84-35.5,159.3-86.3,224.1-151.1c64.7-64.7,115.5-140.1,151-224.1c36.8-86.9,55.4-179.3,55.4-274.4V824.2h782v1643.9
		c0,224.4-182.5,406.9-406.9,406.9c-161.1,0-300.7-94.1-366.5-230.3c-16.7-34.4-28.6-71.5-35-110.5c-3.5-21.5-5.4-66.1-5.4-66.1
		h-110.5c0,0-1,25.3,4,59.3c6.7,45.5,17.9,106.7,33.4,143.4c26.2,62,63.8,117.7,111.6,165.5c47.8,47.8,103.5,85.4,165.5,111.6
		c64.3,27.2,132.5,41,202.8,41s138.5-13.8,202.8-41c62-26.2,117.7-63.8,165.5-111.6c47.8-47.8,85.4-103.5,111.6-165.5
		c27-63.9,40.8-131.8,41-201.7V247.6H2407.9z M1511.9,1415.2c0,325.8-265.1,590.9-590.9,590.9S330,1741,330,1415.2
		c0-325.8,265.1-590.9,590.9-590.9h590.9V1415.2z"/>
	<g>
		<path fill="#FFFFFF" d="M920.9,1135c-139.1,0-251.9,112.8-251.9,252s112.8,252,251.9,252c139.1,0,252-112.8,252-252
			S1060.1,1135,920.9,1135z M851.1,1398.5c-44.7,0-80.9-36.2-80.9-80.9s36.2-80.9,80.9-80.9c44.7,0,80.9,36.2,80.9,80.9
			S895.8,1398.5,851.1,1398.5z"/>
	</g>
</g>
</svg>
