<?xml version="1.0" encoding="utf-8"?>
<!-- Generator: Adobe Illustrator 22.0.1, SVG Export Plug-In . SVG Version: 6.00 Build 0)  -->
<svg version="1.1" id="_x33_5" xmlns="http://www.w3.org/2000/svg" xmlns:xlink="http://www.w3.org/1999/xlink" x="0px" y="0px"
	 viewBox="0 0 57.1 80.8" enable-background="new 0 0 57.1 80.8" xml:space="preserve">
<g>
	<g>
		<path d="M3.5,80c-0.3,0-0.6-0.1-0.8-0.3C2.3,79.5,2,79,2.1,78.4l1.3-15.5c0.1-0.7,0.2-1.3,0.5-2c0-0.1,0-0.2,0.1-0.2L4,60.6
			l29.8-48.8c0.2-0.3,0.6-0.4,0.9-0.2l14.2,8.7c0.3,0.2,0.4,0.6,0.2,0.9L19.2,70c0,0.1-0.1,0.1-0.2,0.2c-0.4,0.5-0.9,1-1.5,1.3
			L4.3,79.8C4.1,79.9,3.8,80,3.5,80z M5.2,61.1C5.2,61.1,5.2,61.1,5.2,61.1c-0.3,0.6-0.5,1.3-0.6,1.9L3.4,78.5c0,0.1,0,0.1,0.1,0.1
			l0.1,0.1c0,0,0,0,0,0l13.3-8.2c0.6-0.3,1-0.8,1.4-1.3c0,0,0,0,0,0L47.7,21l-13.1-8L5.2,61.1z"/>
	</g>
	<g>
		<path d="M51.1,17.3c-0.1,0-0.2,0-0.3-0.1L36.6,8.5c-0.3-0.2-0.4-0.6-0.2-0.9l2.7-4.4c0.9-1.5,2.5-2.4,4.2-2.4
			c0.9,0,1.8,0.3,2.6,0.7l6.8,4.1c2.3,1.4,3.1,4.5,1.6,6.8l-2.7,4.4C51.5,17.1,51.3,17.3,51.1,17.3z M37.8,7.8l13,7.9l2.4-3.9
			c1-1.7,0.5-4-1.2-5l-6.8-4.1c-0.6-0.4-1.2-0.5-1.9-0.5c-1.3,0-2.4,0.7-3.1,1.7L37.8,7.8z"/>
	</g>
	<g>
		<path d="M48.6,21.4c-0.1,0-0.2,0-0.3-0.1L34,12.7c-0.3-0.2-0.4-0.6-0.2-0.9l2.5-4.2c0.1-0.1,0.2-0.3,0.4-0.3c0.2,0,0.3,0,0.5,0.1
			l14.2,8.7c0.1,0.1,0.3,0.2,0.3,0.4c0,0.2,0,0.3-0.1,0.5l-2.5,4.2c-0.1,0.1-0.2,0.3-0.4,0.3C48.7,21.4,48.6,21.4,48.6,21.4z
			 M35.3,11.9l13.1,8l1.9-3l-13.1-8L35.3,11.9z"/>
	</g>
	<g>
		<path d="M11.2,75.6c-0.1,0-0.2,0-0.3-0.1l-8-4.9c-0.3-0.2-0.4-0.6-0.2-0.9c0.2-0.3,0.6-0.4,0.9-0.2l8,4.9c0.3,0.2,0.4,0.6,0.2,0.9
			C11.7,75.4,11.5,75.6,11.2,75.6z"/>
	</g>
	<g>
		<path d="M18.3,70.6c-0.1,0-0.2,0-0.3-0.1L4.1,62c-0.3-0.2-0.4-0.6-0.2-0.9c0.2-0.3,0.6-0.4,0.9-0.2l13.9,8.5
			c0.3,0.2,0.4,0.6,0.2,0.9C18.8,70.5,18.5,70.6,18.3,70.6z"/>
	</g>
	<g>
		<path d="M7.8,64.2c-0.1,0-0.2,0-0.3-0.1c-0.3-0.2-0.4-0.6-0.2-0.9l30.1-49.2c0.2-0.3,0.6-0.4,0.9-0.2c0.3,0.2,0.4,0.6,0.2,0.9
			L8.4,63.8C8.3,64,8,64.2,7.8,64.2z"/>
	</g>
</g>
</svg>
